<?xml version="1.0" encoding="UTF-8" standalone="no"?>
<!-- Created with Inkscape (http://www.inkscape.org/) -->

<svg
   xmlns:dc="http://purl.org/dc/elements/1.1/"
   xmlns:cc="http://creativecommons.org/ns#"
   xmlns:rdf="http://www.w3.org/1999/02/22-rdf-syntax-ns#"
   xmlns:svg="http://www.w3.org/2000/svg"
   xmlns="http://www.w3.org/2000/svg"
   xmlns:sodipodi="http://sodipodi.sourceforge.net/DTD/sodipodi-0.dtd"
   xmlns:inkscape="http://www.inkscape.org/namespaces/inkscape"
   width="210mm"
   height="297mm"
   id="svg2"
   version="1.1"
   inkscape:version="0.48.4 r9939"
   sodipodi:docname="vaso.svg">
  <defs
     id="defs4" />
  <sodipodi:namedview
     id="base"
     pagecolor="#ffffff"
     bordercolor="#666666"
     borderopacity="1.0"
     inkscape:pageopacity="0.0"
     inkscape:pageshadow="2"
     inkscape:zoom="0.6841751"
     inkscape:cx="372.04724"
     inkscape:cy="526.18109"
     inkscape:document-units="px"
     inkscape:current-layer="layer1"
     showgrid="false"
     inkscape:window-width="1680"
     inkscape:window-height="961"
     inkscape:window-x="0"
     inkscape:window-y="27"
     inkscape:window-maximized="1" />
  <metadata
     id="metadata7">
    <rdf:RDF>
      <cc:Work
         rdf:about="">
        <dc:format>image/svg+xml</dc:format>
        <dc:type
           rdf:resource="http://purl.org/dc/dcmitype/StillImage" />
        <dc:title></dc:title>
      </cc:Work>
    </rdf:RDF>
  </metadata>
  <g
     inkscape:label="Capa 1"
     inkscape:groupmode="layer"
     id="layer1">
    <path
       style="fill:#000000;fill-opacity:1;stroke:#000000;stroke-width:0.2;stroke-linecap:round;stroke-linejoin:round;stroke-miterlimit:4;stroke-opacity:1;stroke-dasharray:none"
       d="m 346.48658,825.77971 c -22.5161,-3.20641 -34.40647,-6.57279 -51.13016,-14.47587 -11.35683,-5.36688 -19.49702,-10.61239 -27.9564,-18.015 -9.37317,-8.20225 -8.13883,-4.21273 -14.38992,-46.50948 -2.27599,-15.4 -7.24252,-48.475 -11.03674,-73.5 -12.01794,-79.26504 -21.99095,-145.37909 -22.476,-149 -0.25787,-1.925 -3.60874,-24.2 -7.44637,-49.5 -3.83763,-25.3 -9.068,-59.95 -11.62304,-77 -4.54634,-30.33809 -4.70979,-31.06753 -7.65497,-34.16267 -2.9508,-3.10104 -3.04798,-3.53946 -4.98745,-22.5 -1.62555,-15.89163 -1.77313,-20.40646 -0.82823,-25.33733 2.37166,-12.37631 2.59388,-12.79941 9.43779,-17.96905 l 6.43737,-4.86256 2.18376,-11.58419 c 2.32823,-12.35059 2.90595,-13.94798 6.68849,-18.49359 8.72324,-10.48304 26.36629,-19.0429 53.79348,-26.09894 26.54194,-6.82829 56.13963,-10.29156 95.48839,-11.17322 52.90042,-1.18531 99.32207,4.37943 134.6771,16.14425 16.0321,5.33487 25.89626,10.46679 33.53174,17.44519 6.28864,5.74746 7.71726,8.76706 10.91738,23.07545 2.44443,10.92958 3.04737,12.0074 12.05298,21.54607 3.46433,3.66939 3.90512,4.77912 4.93349,12.42049 0.80654,5.9931 0.82787,9.84269 0.0746,13.47059 -0.58005,2.79373 -1.34214,10.25451 -1.69353,16.57951 -0.67375,12.12741 -1.80586,15.22295 -8.04594,22 -2.04714,2.2233 -2.63388,5.15637 -5.30117,26.5 -1.64959,13.2 -3.28408,26.7 -3.6322,30 -0.34812,3.3 -3.29206,26.925 -6.54208,52.5 -3.25002,25.575 -6.82552,54.375 -7.94556,64 -1.12003,9.625 -4.72493,38.875 -8.01089,65 -11.22979,89.28238 -19.11793,152.49388 -20.52789,164.5 l -1.40924,12 -6.88187,6.60576 c -8.81492,8.46125 -16.9066,13.92475 -29.56678,19.96345 -24.54466,11.70742 -48.64141,16.90287 -81.13016,17.49232 -13.7687,0.24981 -23.11565,-0.0808 -30,-1.06118 z m 55.5,-3.1164 c 15.98081,-2.29116 34.74741,-7.33226 48.21548,-12.95168 10.45181,-4.36091 26.40111,-14.41228 33.98207,-21.41576 l 7.15386,-6.60891 2.8085,-21.4538 c 1.54467,-11.79959 3.72105,-29.5538 4.8364,-39.4538 1.11535,-9.9 4.71104,-38.925 7.99043,-64.5 3.27938,-25.575 6.65231,-52.8 7.49539,-60.5 0.84308,-7.7 4.42632,-36.725 7.96276,-64.5 3.53644,-27.775 6.7253,-53.425 7.08637,-57 0.36106,-3.575 3.52743,-28.89441 7.03638,-56.26536 6.14237,-47.91253 6.47566,-49.86717 8.95202,-52.5 6.1455,-6.53381 6.72705,-8.42891 8.1693,-26.6215 0.74617,-9.41223 1.07973,-19.81314 0.74124,-23.11314 -0.58841,-5.7364 -0.89969,-6.28944 -7.08537,-12.58813 l -6.46993,-6.58813 -3.40232,-13.14359 c -1.87127,-7.22898 -4.07804,-14.4503 -4.90392,-16.04737 -2.54024,-4.9123 -10.59859,-11.1063 -21.06866,-16.19431 -13.41881,-6.52098 -24.68087,-10.09748 -45,-14.2907 -63.0697,-13.01556 -137.91752,-12.13083 -199,2.35225 -23.48255,5.56787 -42.76481,14.35732 -51.30346,23.38569 -5.32073,5.62589 -5.73902,6.6593 -9.24141,22.83168 l -2.10445,9.71739 -6.40688,5.03498 c -4.19115,3.29369 -6.61815,5.9852 -7.01778,7.7826 -0.336,1.5112 -1.14712,4.77264 -1.80249,7.24764 -0.96716,3.65246 -0.84604,8.17269 0.64312,24 l 1.83472,19.5 3.32808,3.5 c 3.02865,3.18509 3.43272,4.35475 4.49101,13 0.6396,5.225 4.26319,29.75 8.0524,54.5 14.26759,93.19145 21.0898,138.24935 22.10586,146 0.57681,4.4 3.90597,26.45 7.39813,49 3.49217,22.55 6.64991,43.475 7.0172,46.5 0.3673,3.025 3.52948,23.95 7.02707,46.5 3.4976,22.55 7.06186,46.38654 7.9206,52.9701 l 1.56133,11.9701 5.24848,5.3222 c 10.80435,10.95613 28.38933,21.24925 46.41489,27.16831 28.61291,9.39565 58.43239,11.88353 89.33358,7.45324 z m -47.59848,-1.40168 c -18.64942,-1.80918 -41.16001,-7.6427 -56.28499,-14.586 -16.22955,-7.45036 -33.51835,-21.2378 -34.51448,-27.52454 -2.23266,-14.09059 -13.07516,-85.79441 -15.10183,-99.87173 -1.38569,-9.625 -5.42931,-36.625 -8.98583,-60 -14.30651,-94.02873 -20.46739,-134.88356 -21.4889,-142.5 -0.59012,-4.4 -3.56184,-23.975 -6.60383,-43.5 -4.49423,-28.8462 -9.42166,-62.15497 -9.42166,-63.6891 0,-1.25356 4.00422,0.32682 9.73239,3.84117 25.26739,15.50206 64.62866,27.04979 110.76761,32.49676 21.29503,2.514 78.621,2.5197 100,0.01 42.35852,-4.97264 75.95919,-13.14577 98.5,-23.95946 5.225,-2.50663 11.17894,-5.57297 13.23098,-6.81409 2.05204,-1.24112 4.02354,-1.96402 4.38112,-1.60644 0.60198,0.60198 -3.73184,36.50774 -20.12323,166.72123 -3.49634,27.775 -6.85827,55 -7.47096,60.5 -0.61269,5.5 -3.98806,32.725 -7.50082,60.5 -3.51276,27.775 -7.51886,60.175 -8.90244,72 -1.38359,11.825 -3.28276,27.24889 -4.22037,34.27532 l -1.70476,12.77532 -6.60268,6.22468 c -21.68274,20.44144 -61.00914,33.80487 -103.34394,35.11711 -8.3836,0.25987 -19.33722,0.0753 -24.34138,-0.41016 z m 35.09848,-3.00248 c 39.29981,-3.63893 71.33117,-15.69587 90.99241,-34.25049 l 5.54118,-5.2293 6.03831,-48 c 3.32107,-26.4 7.13408,-57.225 8.47335,-68.5 1.33927,-11.275 5.12875,-41.875 8.42106,-68 8.20838,-65.13482 20.45977,-163.98631 23.54809,-190 1.40386,-11.825 2.80537,-22.77026 3.11448,-24.3228 l 0.56201,-2.82279 -4.09579,2.58556 c -15.1173,9.54313 -49.09275,20.00283 -81.0951,24.96598 -55.23701,8.56655 -105.4579,8.41284 -158.5,-0.4851 -30.31344,-5.08516 -62.39063,-16.06772 -81.78605,-28.00184 -2.71246,-1.669 -5.04775,-2.89605 -5.18952,-2.72677 -0.14178,0.16927 1.48116,11.78276 3.60653,25.80776 6.09985,40.25212 18.9544,125.47216 40.80209,270.5 3.81131,25.3 9.08498,60.4 11.71926,78 l 4.7896,32 4.33568,4.66426 c 7.98934,8.59479 23.80225,18.20788 39.72241,24.14831 22.76538,8.49465 52.44278,12.12627 79,9.66722 z m -43.5,-413.55681 c -40.32764,-2.65511 -70.85185,-8.22102 -99.5,-18.14325 -11.92906,-4.13161 -31.24551,-13.61794 -40.40437,-19.84263 -11.82115,-8.03409 -10.95803,-6.48474 -12.59918,-22.61627 -0.80131,-7.87645 -1.46582,-14.88333 -1.47669,-15.57083 -0.035,-2.21579 2.57207,-1.34612 9.11261,3.03979 22.04986,14.78605 71.05106,28.01242 122.86763,33.16436 48.44819,4.81703 85.6342,4.67824 127.76453,-0.47687 37.73137,-4.61684 70.91604,-14.9713 91.07275,-28.417 8.33245,-5.55823 8.44405,-5.44617 7.65863,7.68972 -0.58298,9.74994 -1.03175,11.84756 -3.36564,15.73151 -11.57477,19.26219 -61.70189,36.96857 -123.13027,43.49325 -13.64131,1.44892 -65.79725,2.75163 -78,1.94822 z m 78,-4.85968 c 53.28454,-6.49456 89.40682,-16.97427 110.57543,-32.07988 9.65456,-6.88934 11.98433,-10.94855 12.76425,-22.23935 l 0.63935,-9.25592 -3.80501,2.402 c -27.50576,17.36362 -70.41544,28.27833 -124.17402,31.5855 -81.87875,5.03708 -181.30426,-10.99898 -219.43739,-35.39245 -4.3945,-2.81113 -5.60228,-3.24532 -5.20649,-1.8717 0.28343,0.98367 0.81469,6.2885 1.18057,11.7885 0.36588,5.5 1.2433,10.91807 1.94984,12.04017 3.52578,5.59954 27.51376,18.86865 47.51347,26.28239 25.09751,9.30346 53.93339,14.99369 94,18.54918 11.71979,1.04 71.12257,-0.23888 84,-1.80844 z m -66,-35.23392 c -69.59262,-3.80432 -129.5937,-17.69381 -157,-36.34351 -8.15295,-5.54799 -9.38265,-7.21457 -8.64066,-11.71035 1.48937,-9.02418 2.42494,-10.63979 8.95164,-15.45831 6.32801,-4.67183 6.34597,-4.69932 7.67634,-11.75 1.54479,-8.18707 2.62781,-8.71409 7.20183,-3.50456 13.2704,15.11415 46.75613,28.02764 87.81085,33.86352 28.0017,3.98041 40.7594,4.87338 70,4.89965 73.50895,0.066 130.35738,-12.84294 152.26476,-34.57582 3.74232,-3.7125 7.19021,-6.75 7.662,-6.75 0.47179,0 1.63471,3.2625 2.58426,7.25 1.61789,6.79407 2.1332,7.63565 8.19422,13.38236 l 6.46775,6.13236 0.54813,7.99705 0.54814,7.99705 -7.38463,5.20456 c -31.48689,22.19142 -88.76577,34.39198 -158.88463,33.84286 -12.375,-0.0969 -24.975,-0.3115 -28,-0.47686 z m 69.5,-3.42286 c 27.02726,-1.9319 58.37793,-7.59937 78,-14.10057 12.25323,-4.05976 26.41256,-10.80871 35.84539,-17.08549 l 7.84539,-5.22046 -0.48467,-6.30526 c -0.47423,-6.16934 -0.62382,-6.44956 -6.94,-12.99999 -5.30568,-5.50246 -6.68063,-7.63711 -7.72038,-11.9861 l -1.26505,-5.29134 -5.14034,4.83572 c -9.56708,9.00012 -22.60394,15.55466 -41.9932,21.11289 -21.08222,6.04354 -44.87789,10.08183 -71.99369,12.21784 -19.81244,1.56069 -78.6099,0.62469 -95.65345,-1.52272 -49.05817,-6.18109 -86.62658,-18.95166 -101.43709,-34.48133 -3.3359,-3.49789 -4.56044,-3.8543 -4.56849,-1.32971 -0.0177,5.56222 -2.21192,9.25087 -8.46068,14.22315 -5.95202,4.73617 -6.48996,5.49901 -7.5798,10.74874 l -1.1731,5.65076 3.35958,2.83815 c 14.08275,11.89699 44.35015,22.88095 83.35958,30.25098 48.25012,9.11587 97.09021,11.94081 146,8.44474 z m -82,-39.98274 c -35.32267,-1.95951 -66.39842,-7.48343 -92.33773,-16.41364 -16.39755,-5.64524 -25.97365,-11.30572 -34.41601,-20.34347 -7.07045,-7.56908 -7.55066,-9.12806 -4.58669,-14.89046 5.0314,-9.78177 22.85125,-19.49132 48.04499,-26.17841 53.3493,-14.1603 128.32017,-16.75865 189.53825,-6.56902 13.47896,2.24355 36.25209,7.77626 45.25719,10.9952 17.8898,6.39483 32.76501,16.70726 34.59041,23.98022 1.62142,6.46024 -5.31861,16.9044 -15.62924,23.52072 -29.59745,18.99263 -100.57131,29.77598 -170.46117,25.89886 z m 80.34571,-4.37788 c 53.49732,-5.98844 92.82745,-20.22395 101.1961,-36.62785 2.90531,-5.69488 2.50856,-8.36566 -1.96346,-13.21723 -10.17327,-11.03669 -40.02349,-22.02202 -75.07835,-27.62995 -42.66803,-6.82586 -93.03032,-7.56873 -140.1038,-2.0666 -42.53268,4.97138 -77.45127,16.43057 -89.77534,29.46146 -2.81647,2.978 -5.12086,6.0815 -5.12086,6.89667 0,4.35327 14.3522,17.57814 25.1256,23.15204 15.72659,8.13656 57.74026,17.84209 88.3744,20.41525 7.15,0.60058 14.8,1.26592 17,1.47855 9.98547,0.96506 66.86531,-0.35336 80.34571,-1.86234 z"
       id="path3822"
       inkscape:connector-curvature="0" />
  </g>
</svg>
